<svg width="29" height="30" viewBox="0 0 29 30" fill="none" xmlns="http://www.w3.org/2000/svg">
<path d="M14 10V15L17.125 18.125" stroke="#5011A0" stroke-width="4" stroke-linecap="round" stroke-linejoin="round"/>
<path d="M4.42231 8.58826L3.48483 8.59298C3.4874 9.10705 3.90351 9.52316 4.4176 9.52575L4.42231 8.58826ZM7.59954 9.54174C8.1173 9.54434 8.53914 9.12672 8.54174 8.60896C8.54434 8.0912 8.12672 7.66936 7.60896 7.66676L7.59954 9.54174ZM5.34381 5.40161C5.3412 4.88385 4.91938 4.46622 4.40161 4.46882C3.88385 4.47144 3.46622 4.89328 3.46884 5.41103L5.34381 5.40161ZM3.6875 15C3.6875 14.4822 3.26776 14.0625 2.75 14.0625C2.23224 14.0625 1.8125 14.4822 1.8125 15H3.6875ZM20.0944 25.5565C20.5426 25.2972 20.6958 24.7238 20.4365 24.2755C20.1773 23.8274 19.6038 23.6741 19.1556 23.9335L20.0944 25.5565ZM22.9335 20.1556C22.6741 20.6038 22.8274 21.1773 23.2755 21.4365C23.7238 21.6958 24.2972 21.5426 24.5565 21.0944L22.9335 20.1556ZM5.42541 6.33907C5.05747 6.70336 5.05451 7.29695 5.41881 7.66489C5.7831 8.03282 6.37668 8.03577 6.74461 7.67149L5.42541 6.33907ZM22.5779 6.42232C17.8026 1.64707 10.086 1.59873 5.34238 6.34238L6.6682 7.6682C10.6671 3.66931 17.1965 3.69255 21.2521 7.74815L22.5779 6.42232ZM5.34238 6.34238L3.7594 7.92535L5.08522 9.25117L6.6682 7.6682L5.34238 6.34238ZM4.4176 9.52575L7.59954 9.54174L7.60896 7.66676L4.42702 7.65077L4.4176 9.52575ZM5.3598 8.58355L5.34381 5.40161L3.46884 5.41103L3.48483 8.59298L5.3598 8.58355ZM14 4.6875C19.6954 4.6875 24.3125 9.30456 24.3125 15H26.1875C26.1875 8.26903 20.731 2.8125 14 2.8125V4.6875ZM14 25.3125C8.30456 25.3125 3.6875 20.6954 3.6875 15H1.8125C1.8125 21.731 7.26903 27.1875 14 27.1875V25.3125ZM19.1556 23.9335C17.6398 24.8104 15.8799 25.3125 14 25.3125V27.1875C16.2184 27.1875 18.3009 26.594 20.0944 25.5565L19.1556 23.9335ZM24.3125 15C24.3125 16.8799 23.8104 18.6398 22.9335 20.1556L24.5565 21.0944C25.594 19.3009 26.1875 17.2184 26.1875 15H24.3125ZM6.74461 7.67149C8.60884 5.82574 11.1706 4.6875 14 4.6875V2.8125C10.6568 2.8125 7.62641 4.15989 5.42541 6.33907L6.74461 7.67149Z" fill="#5011A0"/>
<path d="M6.00529 7.00529L5.34238 6.34238M5.34238 6.34238C10.086 1.59873 17.8026 1.64707 22.5779 6.42232L21.2521 7.74815C17.1965 3.69255 10.6671 3.66931 6.6682 7.6682M5.34238 6.34238L6.6682 7.6682M5.34238 6.34238L3.7594 7.92535L5.08522 9.25117L6.6682 7.6682M3.48483 8.59298L4.42231 8.58826L4.4176 9.52575M3.48483 8.59298C3.4874 9.10705 3.90351 9.52316 4.4176 9.52575M3.48483 8.59298L3.46884 5.41103M3.48483 8.59298L5.3598 8.58355L5.34381 5.40161M4.4176 9.52575L7.59954 9.54174M4.4176 9.52575L4.42702 7.65077L7.60896 7.66676M7.59954 9.54174C8.1173 9.54434 8.53914 9.12672 8.54174 8.60896C8.54434 8.0912 8.12672 7.66936 7.60896 7.66676M7.59954 9.54174L7.60896 7.66676M5.34381 5.40161C5.3412 4.88385 4.91938 4.46622 4.40161 4.46882C3.88385 4.47144 3.46622 4.89328 3.46884 5.41103M5.34381 5.40161L3.46884 5.41103M3.6875 15C3.6875 14.4822 3.26776 14.0625 2.75 14.0625C2.23224 14.0625 1.8125 14.4822 1.8125 15M3.6875 15H1.8125M3.6875 15C3.6875 20.6954 8.30456 25.3125 14 25.3125M1.8125 15C1.8125 21.731 7.26903 27.1875 14 27.1875M20.0944 25.5565C20.5426 25.2972 20.6958 24.7238 20.4365 24.2755C20.1773 23.8274 19.6038 23.6741 19.1556 23.9335M20.0944 25.5565L19.1556 23.9335M20.0944 25.5565C18.3009 26.594 16.2184 27.1875 14 27.1875M19.1556 23.9335C17.6398 24.8104 15.8799 25.3125 14 25.3125M22.9335 20.1556C22.6741 20.6038 22.8274 21.1773 23.2755 21.4365C23.7238 21.6958 24.2972 21.5426 24.5565 21.0944M22.9335 20.1556L24.5565 21.0944M22.9335 20.1556C23.8104 18.6398 24.3125 16.8799 24.3125 15M24.5565 21.0944C25.594 19.3009 26.1875 17.2184 26.1875 15M5.42541 6.33907C5.05747 6.70336 5.05451 7.29695 5.41881 7.66489C5.7831 8.03282 6.37668 8.03577 6.74461 7.67149M5.42541 6.33907L6.74461 7.67149M5.42541 6.33907C7.62641 4.15989 10.6568 2.8125 14 2.8125M6.74461 7.67149C8.60884 5.82574 11.1706 4.6875 14 4.6875M14 4.6875C19.6954 4.6875 24.3125 9.30456 24.3125 15M14 4.6875V2.8125M24.3125 15H26.1875M26.1875 15C26.1875 8.26903 20.731 2.8125 14 2.8125M14 25.3125V27.1875" stroke="#5011A0" stroke-width="2"/>
</svg>
