<svg width="29" height="30" viewBox="0 0 29 30" fill="none" xmlns="http://www.w3.org/2000/svg">
<path d="M5.31645 12.3619C6.63757 12.3629 7.84606 11.8227 8.71032 10.9557C9.5764 10.0924 10.1166 8.88387 10.1166 7.56275C10.1166 6.24164 9.5764 5.03221 8.71032 4.16795C7.84606 3.30187 6.63757 2.7617 5.31645 2.76264C3.99534 2.7617 2.78684 3.30187 1.92259 4.16889C1.05651 5.03221 0.516337 6.24164 0.517274 7.56275C0.516337 8.88387 1.05651 10.0914 1.92259 10.9557C2.7869 11.8226 3.9954 12.3628 5.31645 12.3619ZM3.87358 6.11894C4.24712 5.74723 4.74886 5.52199 5.31645 5.52111C5.88499 5.52205 6.38579 5.74723 6.76026 6.11894C7.13104 6.49248 7.35722 6.99422 7.35722 7.56275C7.35722 8.13041 7.1311 8.63115 6.76026 9.00562C6.38579 9.3764 5.88499 9.60258 5.31645 9.60346C4.7488 9.60252 4.24712 9.3764 3.87358 9.00562C3.50186 8.63115 3.27663 8.13035 3.27575 7.56275C3.27669 6.99416 3.50192 6.49248 3.87358 6.11894Z" fill="#5011A0"/>
<path d="M15.8332 12.3619C17.1543 12.3629 18.3628 11.8227 19.227 10.9557C20.0931 10.0914 20.6333 8.88387 20.6324 7.56275C20.6333 6.24164 20.0931 5.03221 19.227 4.16889C18.3628 3.30187 17.1543 2.7617 15.8332 2.76264C14.513 2.7617 13.3036 3.30187 12.4393 4.16795C11.5723 5.03221 11.0331 6.24164 11.034 7.56275C11.0331 8.88387 11.5732 10.0924 12.4393 10.9557C13.3036 11.8226 14.513 12.3628 15.8332 12.3619ZM14.3903 6.11894C14.7638 5.74723 15.2656 5.52199 15.8332 5.52111C16.4008 5.52205 16.9025 5.74723 17.276 6.11894C17.6478 6.49248 17.873 6.99422 17.8739 7.56275C17.8729 8.13041 17.6478 8.63115 17.276 9.00562C16.9025 9.3764 16.4008 9.60258 15.8332 9.60346C15.2655 9.60252 14.7638 9.3764 14.3903 9.00562C14.0186 8.63115 13.7934 8.13035 13.7925 7.56275C13.7934 6.99416 14.0186 6.49248 14.3903 6.11894Z" fill="#5011A0"/>
<path d="M18.3426 13.1364H2.69256C1.95281 13.1355 1.2726 13.4395 0.788262 13.9247C0.303047 14.409 0 15.0892 0 15.829V24.5448C0 25.2846 0.303047 25.9657 0.788262 26.4491C1.2726 26.9343 1.95281 27.2383 2.69256 27.2374H18.3426C19.0814 27.2383 19.7626 26.9343 20.246 26.4491C20.7321 25.9657 21.036 25.2846 21.0352 24.5448V15.829C21.0361 15.0892 20.7321 14.409 20.246 13.9247C19.7626 13.4395 19.0814 13.1356 18.3426 13.1364ZM18.6219 24.5448C18.62 24.6263 18.5916 24.6885 18.5395 24.7426C18.4855 24.7948 18.4232 24.8231 18.3427 24.8241H2.69256C2.61105 24.8231 2.54971 24.7948 2.49574 24.7426C2.44354 24.6885 2.41518 24.6263 2.41336 24.5448V15.829C2.41518 15.7484 2.44359 15.6861 2.49574 15.6312C2.54977 15.58 2.61111 15.5507 2.69256 15.5497H18.3426C18.4232 15.5507 18.4854 15.58 18.5394 15.6312C18.5916 15.6862 18.62 15.7484 18.6218 15.829L18.6219 24.5448Z" fill="#5011A0"/>
<path d="M27.938 13.8524C27.5965 13.6464 27.2038 13.5384 26.8174 13.5384C26.4621 13.5384 26.1106 13.6253 25.7856 13.7975L21.4653 16.101V18.8384L26.5867 16.1083V24.2702L21.4653 21.5355V24.2739L25.7856 26.5764C26.1106 26.7495 26.4622 26.8355 26.8174 26.8355C27.2038 26.8355 27.5965 26.732 27.9417 26.5252C28.5972 26.1287 29 25.4183 29 24.6492V15.7246C29 14.9556 28.5972 14.2451 27.938 13.8524Z" fill="#5011A0"/>
</svg>
