<svg width="29" height="29" viewBox="0 0 29 29" fill="none" xmlns="http://www.w3.org/2000/svg">
<path d="M14 18.75C16.0711 18.75 17.75 17.0711 17.75 15C17.75 12.9289 16.0711 11.25 14 11.25C11.9289 11.25 10.25 12.9289 10.25 15C10.25 17.0711 11.9289 18.75 14 18.75Z" stroke="#1C274C" stroke-width="3.75"/>
<path d="M16.2067 2.6903C15.7472 2.5 15.1649 2.5 14 2.5C12.8351 2.5 12.2527 2.5 11.7932 2.6903C11.1807 2.94404 10.694 3.43073 10.4403 4.04329C10.3245 4.32293 10.2791 4.64813 10.2614 5.12249C10.2353 5.8196 9.87782 6.46486 9.27367 6.81366C8.66955 7.16245 7.93198 7.14942 7.31523 6.82345C6.89556 6.60162 6.59126 6.47828 6.29117 6.43878C5.6338 6.35223 4.96897 6.53036 4.44295 6.934C4.04842 7.23673 3.75721 7.74112 3.17478 8.74991C2.59236 9.75871 2.30115 10.2631 2.23623 10.7561C2.1497 11.4135 2.32783 12.0783 2.73147 12.6044C2.9157 12.8445 3.17462 13.0462 3.57648 13.2987C4.16725 13.67 4.54736 14.3024 4.54732 15C4.54728 15.6976 4.16718 16.3299 3.57647 16.701C3.17456 16.9536 2.9156 17.1555 2.73135 17.3956C2.32771 17.9216 2.14957 18.5864 2.23612 19.2438C2.30102 19.7368 2.59223 20.2413 3.17466 21.25C3.7571 22.2587 4.04831 22.7632 4.44282 23.0659C4.96885 23.4695 5.63367 23.6476 6.29105 23.5611C6.59111 23.5216 6.8954 23.3983 7.31505 23.1765C7.93183 22.8505 8.66945 22.8375 9.27362 23.1862C9.8778 23.5351 10.2353 24.1804 10.2614 24.8776C10.2791 25.3519 10.3245 25.6771 10.4403 25.9567C10.694 26.5692 11.1807 27.056 11.7932 27.3097C12.2527 27.5 12.8351 27.5 14 27.5C15.1649 27.5 15.7472 27.5 16.2067 27.3097C16.8192 27.056 17.306 26.5692 17.5596 25.9567C17.6755 25.6771 17.7209 25.3519 17.7386 24.8775C17.7646 24.1804 18.1221 23.5351 18.7262 23.1862C19.3304 22.8374 20.068 22.8505 20.6849 23.1765C21.1045 23.3983 21.4087 23.5215 21.7087 23.561C22.3661 23.6476 23.031 23.4695 23.557 23.0659C23.9515 22.7631 24.2427 22.2588 24.8251 21.2499C25.4076 20.2411 25.6989 19.7368 25.7637 19.2438C25.8502 18.5864 25.6721 17.9215 25.2685 17.3955C25.0842 17.1554 24.8252 16.9535 24.4234 16.701C23.8327 16.3299 23.4526 15.6975 23.4526 14.9999C23.4526 14.3022 23.8327 13.6701 24.4234 13.299C24.8254 13.0464 25.0844 12.8446 25.2686 12.6044C25.6722 12.0784 25.8504 11.4136 25.7639 10.7562C25.699 10.2632 25.4077 9.75879 24.8252 8.75C24.2429 7.74121 23.9516 7.23681 23.5571 6.93409C23.0311 6.53045 22.3662 6.35231 21.7089 6.43886C21.4089 6.47836 21.1046 6.6017 20.6849 6.8235C20.0681 7.14949 19.3305 7.16253 18.7264 6.8137C18.1221 6.46489 17.7646 5.81957 17.7386 5.12242C17.7209 4.6481 17.6755 4.32291 17.5596 4.04329C17.306 3.43073 16.8192 2.94404 16.2067 2.6903Z" stroke="#1C274C" stroke-width="3.75"/>
</svg>
