<svg width="164" height="66" viewBox="0 0 164 66" fill="none" xmlns="http://www.w3.org/2000/svg">
<path d="M19.65 43.25C15.6833 43.25 12.2333 42.5333 9.3 41.1C6.36667 39.6333 4.11667 37.5667 2.55 34.9C0.983334 32.2333 0.2 29.1333 0.2 25.6C0.2 20.7 1.11667 16.35 2.95 12.55C4.81667 8.75 7.33333 5.81666 10.5 3.75C13.6667 1.65 17.1833 0.599998 21.05 0.599998C24.65 0.599998 27.3833 1.53333 29.25 3.4C31.1167 5.23333 32.05 7.66666 32.05 10.7C32.05 12.7333 31.6833 14.3667 30.95 15.6C30.25 16.8333 29.2333 17.45 27.9 17.45C26.9667 17.45 26.2333 17.2333 25.7 16.8C25.1667 16.3667 24.9 15.7333 24.9 14.9C24.9 14.6 24.9667 14.05 25.1 13.25C25.3 12.25 25.4 11.45 25.4 10.85C25.4 7.81667 23.7833 6.3 20.55 6.3C18.35 6.3 16.25 7.01667 14.25 8.45C12.25 9.88333 10.6333 12 9.4 14.8C8.16667 17.5667 7.55 20.8667 7.55 24.7C7.55 28.7 8.66667 31.8 10.9 34C13.1333 36.1667 16.4333 37.25 20.8 37.25C22.9667 37.25 25.15 36.9833 27.35 36.45C29.5833 35.8833 32.05 35.0333 34.75 33.9C35.25 33.7 35.6667 33.6 36 33.6C36.5333 33.6 36.9333 33.8 37.2 34.2C37.4667 34.6 37.6 35.1167 37.6 35.75C37.6 37.7833 36.5 39.2833 34.3 40.25C31.9333 41.2833 29.4667 42.05 26.9 42.55C24.3667 43.0167 21.95 43.25 19.65 43.25ZM40.2273 16.4C38.8273 16.4 37.7773 16.0833 37.0773 15.45C36.3773 14.7833 36.0273 13.8667 36.0273 12.7C36.0273 11.5333 36.4773 10.5667 37.3773 9.8C38.3107 9 39.4607 8.6 40.8273 8.6C42.0607 8.6 43.0607 8.9 43.8273 9.5C44.594 10.1 44.9773 10.95 44.9773 12.05C44.9773 13.3833 44.544 14.45 43.6773 15.25C42.8107 16.0167 41.6607 16.4 40.2273 16.4ZM39.8273 43.25C37.6607 43.25 36.0773 42.4833 35.0773 40.95C34.1107 39.4167 33.6273 37.3833 33.6273 34.85C33.6273 33.35 33.8107 31.4333 34.1773 29.1C34.5773 26.7333 35.0773 24.5333 35.6773 22.5C35.9773 21.4333 36.3773 20.7 36.8773 20.3C37.3773 19.9 38.1773 19.7 39.2773 19.7C40.9773 19.7 41.8273 20.2667 41.8273 21.4C41.8273 22.2333 41.5107 24.1667 40.8773 27.2C40.0773 30.8667 39.6773 33.35 39.6773 34.65C39.6773 35.65 39.8107 36.4167 40.0773 36.95C40.344 37.4833 40.794 37.75 41.4273 37.75C42.0273 37.75 42.7773 37.3333 43.6773 36.5C44.5773 35.6667 45.7773 34.35 47.2773 32.55C47.6773 32.0833 48.1273 31.85 48.6273 31.85C49.0607 31.85 49.394 32.05 49.6273 32.45C49.894 32.85 50.0273 33.4 50.0273 34.1C50.0273 35.4333 49.7107 36.4667 49.0773 37.2C45.7773 41.2333 42.694 43.25 39.8273 43.25ZM49.532 43.25C48.2654 43.25 47.3654 42.5833 46.832 41.25C46.332 39.9167 46.082 37.7833 46.082 34.85C46.082 30.5167 46.6987 26.4 47.932 22.5C48.232 21.5333 48.7154 20.8333 49.382 20.4C50.082 19.9333 51.0487 19.7 52.282 19.7C52.9487 19.7 53.4154 19.7833 53.682 19.95C53.9487 20.1167 54.082 20.4333 54.082 20.9C54.082 21.4333 53.832 22.6333 53.332 24.5C52.9987 25.8333 52.732 27 52.532 28C52.332 29 52.1654 30.2333 52.032 31.7C53.132 28.8333 54.3654 26.5 55.732 24.7C57.0987 22.9 58.432 21.6167 59.732 20.85C61.0654 20.0833 62.282 19.7 63.382 19.7C65.5487 19.7 66.632 20.7833 66.632 22.95C66.632 24.25 66.2654 26.6 65.532 30C64.8987 32.9 64.582 34.8167 64.582 35.75C64.582 37.0833 65.0654 37.75 66.032 37.75C66.6987 37.75 67.482 37.35 68.382 36.55C69.3154 35.7167 70.5487 34.3833 72.082 32.55C72.482 32.0833 72.932 31.85 73.432 31.85C73.8654 31.85 74.1987 32.05 74.432 32.45C74.6987 32.85 74.832 33.4 74.832 34.1C74.832 35.4333 74.5154 36.4667 73.882 37.2C72.4487 38.9667 70.8987 40.4167 69.232 41.55C67.5987 42.6833 65.732 43.25 63.632 43.25C61.932 43.25 60.6487 42.7667 59.782 41.8C58.9154 40.8 58.482 39.3667 58.482 37.5C58.482 36.5667 58.7154 34.9 59.182 32.5C59.6154 30.4 59.832 28.95 59.832 28.15C59.832 27.6167 59.6487 27.35 59.282 27.35C58.8487 27.35 58.232 27.9167 57.432 29.05C56.6654 30.15 55.8654 31.6167 55.032 33.45C54.232 35.2833 53.582 37.2167 53.082 39.25C52.7154 40.8167 52.282 41.8833 51.782 42.45C51.3154 42.9833 50.5654 43.25 49.532 43.25ZM93.0867 31.85C93.5201 31.85 93.8534 32.05 94.0867 32.45C94.3534 32.85 94.4867 33.4 94.4867 34.1C94.4867 35.4333 94.1701 36.4667 93.5367 37.2C92.3034 38.7 90.5534 40.0833 88.2867 41.35C86.0534 42.6167 83.6534 43.25 81.0867 43.25C77.5867 43.25 74.8701 42.3 72.9367 40.4C71.0034 38.5 70.0367 35.9 70.0367 32.6C70.0367 30.3 70.5201 28.1667 71.4867 26.2C72.4534 24.2 73.7867 22.6167 75.4867 21.45C77.2201 20.2833 79.1701 19.7 81.3367 19.7C83.2701 19.7 84.8201 20.2833 85.9867 21.45C87.1534 22.5833 87.7367 24.1333 87.7367 26.1C87.7367 28.4 86.9034 30.3833 85.2367 32.05C83.6034 33.6833 80.8201 34.9833 76.8867 35.95C77.7201 37.4833 79.3034 38.25 81.6367 38.25C83.1367 38.25 84.8367 37.7333 86.7367 36.7C88.6701 35.6333 90.3367 34.25 91.7367 32.55C92.1367 32.0833 92.5867 31.85 93.0867 31.85ZM80.4867 24.6C79.2534 24.6 78.2034 25.3167 77.3367 26.75C76.5034 28.1833 76.0867 29.9167 76.0867 31.95V32.05C78.0534 31.5833 79.6034 30.8833 80.7367 29.95C81.8701 29.0167 82.4367 27.9333 82.4367 26.7C82.4367 26.0667 82.2534 25.5667 81.8867 25.2C81.5534 24.8 81.0867 24.6 80.4867 24.6ZM130.066 1.5C131.099 1.7 131.866 2.05 132.366 2.55C132.899 3.05 133.166 3.63333 133.166 4.3C133.166 5.4 132.849 6.2 132.216 6.7C131.616 7.2 130.649 7.4 129.316 7.3C126.316 7.06667 123.966 6.91667 122.266 6.85C120.599 6.75 118.399 6.68333 115.666 6.65C114.432 12.7833 113.299 18.95 112.266 25.15C111.899 27.4167 111.516 30.05 111.116 33.05C110.716 36.0167 110.449 38.4167 110.316 40.25C110.249 41.2167 109.849 41.9667 109.116 42.5C108.382 43 107.499 43.25 106.466 43.25C105.366 43.25 104.516 42.9833 103.916 42.45C103.316 41.9167 103.016 41.2167 103.016 40.35C103.016 39.55 103.132 38.2333 103.366 36.4C103.632 34.5333 103.932 32.5833 104.266 30.55C104.632 28.5167 104.916 26.75 105.116 25.25C105.482 22.7167 105.899 20.2 106.366 17.7C106.832 15.2 107.299 12.8333 107.766 10.6C107.866 10.1 107.982 9.53333 108.116 8.9C108.249 8.23333 108.399 7.5 108.566 6.7C105.299 6.8 102.732 7.06666 100.866 7.5C98.999 7.93333 97.6656 8.55 96.8656 9.35C96.099 10.1167 95.7156 11.1167 95.7156 12.35C95.7156 13.4833 96.049 14.5667 96.7156 15.6C96.849 15.8333 96.9156 16.0833 96.9156 16.35C96.9156 16.9833 96.5323 17.5833 95.7656 18.15C95.0323 18.6833 94.2656 18.95 93.4656 18.95C92.899 18.95 92.4323 18.7833 92.0656 18.45C91.399 17.8833 90.849 17.0833 90.4156 16.05C89.9823 14.9833 89.7656 13.7833 89.7656 12.45C89.7656 9.61667 90.6823 7.35 92.5156 5.65C94.3823 3.91667 97.199 2.65 100.966 1.85C104.766 1.05 109.632 0.649997 115.566 0.649997C119.232 0.649997 122.149 0.716664 124.316 0.849997C126.516 0.983331 128.432 1.2 130.066 1.5ZM126.693 43.25C124.626 43.25 122.976 42.5 121.743 41C120.509 39.5 119.893 37.5333 119.893 35.1C119.893 32.4333 120.509 29.9167 121.743 27.55C122.976 25.15 124.609 23.2333 126.643 21.8C128.709 20.3333 130.893 19.6 133.193 19.6C133.926 19.6 134.409 19.75 134.643 20.05C134.909 20.3167 135.126 20.8167 135.293 21.55C135.993 21.4167 136.726 21.35 137.493 21.35C139.126 21.35 139.943 21.9333 139.943 23.1C139.943 23.8 139.693 25.4667 139.193 28.1C138.426 31.9333 138.043 34.6 138.043 36.1C138.043 36.6 138.159 37 138.393 37.3C138.659 37.6 138.993 37.75 139.393 37.75C140.026 37.75 140.793 37.35 141.693 36.55C142.593 35.7167 143.809 34.3833 145.343 32.55C145.743 32.0833 146.193 31.85 146.693 31.85C147.126 31.85 147.459 32.05 147.693 32.45C147.959 32.85 148.093 33.4 148.093 34.1C148.093 35.4333 147.776 36.4667 147.143 37.2C145.776 38.9 144.326 40.3333 142.793 41.5C141.259 42.6667 139.776 43.25 138.343 43.25C137.243 43.25 136.226 42.8833 135.293 42.15C134.393 41.3833 133.709 40.35 133.243 39.05C131.509 41.85 129.326 43.25 126.693 43.25ZM128.493 38.2C129.226 38.2 129.926 37.7667 130.593 36.9C131.259 36.0333 131.743 34.8833 132.043 33.45L133.893 24.25C132.493 24.2833 131.193 24.8167 129.993 25.85C128.826 26.85 127.893 28.1833 127.193 29.85C126.493 31.5167 126.143 33.2833 126.143 35.15C126.143 36.1833 126.343 36.95 126.743 37.45C127.176 37.95 127.759 38.2 128.493 38.2ZM160.979 21.35C161.812 21.35 162.396 21.4833 162.729 21.75C163.096 21.9833 163.279 22.4667 163.279 23.2C163.279 23.6 163.262 23.9167 163.229 24.15C163.096 25.1833 162.679 27.85 161.979 32.15C161.479 35.05 161.162 36.9667 161.029 37.9C159.762 46.5 158.046 53.2833 155.879 58.25C153.746 63.25 150.879 65.75 147.279 65.75C145.579 65.75 144.196 65.2167 143.129 64.15C142.062 63.1167 141.529 61.75 141.529 60.05C141.529 57.6833 142.462 55.1333 144.329 52.4C146.196 49.7 149.696 46.3667 154.829 42.4L155.129 40.45C154.562 41.35 153.812 42.05 152.879 42.55C151.979 43.0167 151.079 43.25 150.179 43.25C148.112 43.25 146.462 42.5 145.229 41C143.996 39.5 143.379 37.5333 143.379 35.1C143.379 32.4333 143.996 29.9167 145.229 27.55C146.462 25.15 148.096 23.2333 150.129 21.8C152.196 20.3333 154.379 19.6 156.679 19.6C157.412 19.6 157.896 19.75 158.129 20.05C158.396 20.3167 158.612 20.8167 158.779 21.55C159.412 21.4167 160.146 21.35 160.979 21.35ZM151.979 38.2C152.746 38.2 153.479 37.7333 154.179 36.8C154.879 35.8667 155.379 34.5333 155.679 32.8L157.279 24.25C155.912 24.2833 154.646 24.8167 153.479 25.85C152.312 26.85 151.379 28.1833 150.679 29.85C149.979 31.5167 149.629 33.2833 149.629 35.15C149.629 36.1833 149.829 36.95 150.229 37.45C150.662 37.95 151.246 38.2 151.979 38.2ZM147.829 60.9C148.662 60.9 149.596 59.9 150.629 57.9C151.696 55.9 152.712 52.7167 153.679 48.35C151.112 50.55 149.262 52.5333 148.129 54.3C146.996 56.0667 146.429 57.6167 146.429 58.95C146.429 59.5167 146.529 59.9833 146.729 60.35C146.962 60.7167 147.329 60.9 147.829 60.9Z" fill="url(#paint0_linear_14_2)"/>
<defs>
<linearGradient id="paint0_linear_14_2" x1="-3" y1="-2" x2="163.472" y2="50.3173" gradientUnits="userSpaceOnUse">
<stop offset="0.234375" stop-color="#5A0091"/>
<stop offset="1" stop-color="#B61E79"/>
</linearGradient>
</defs>
</svg>
